HIERARCHY
ROOT root
{
	OFFSET 0.000000 0.000000 0.000000
	CHANNELS 6 Xposition Yposition Zposition Zrotation Yrotation Xrotation
	JOINT lhip
	{
		OFFSET 0.058581 -0.082280 -0.017664
		CHANNELS 3 Zrotation Yrotation Xrotation
		JOINT lknee
		{
			OFFSET 0.043451 -0.386469 0.008037
			CHANNELS 3 Zrotation Yrotation Xrotation
			JOINT lankle
			{
				OFFSET -0.014790 -0.426874 -0.037428
				CHANNELS 3 Zrotation Yrotation Xrotation
				JOINT ltoe
				{
					OFFSET 0.041054 -0.060286 0.122042
					CHANNELS 3 Zrotation Yrotation Xrotation
					End Site
					{
						OFFSET 0.000000 0.000000 0.000000
					}
				}
			}
		}
	}
	JOINT rhip
	{
		OFFSET -0.060310 -0.090513 -0.013543
		CHANNELS 3 Zrotation Yrotation Xrotation
		JOINT rknee
		{
			OFFSET -0.043257 -0.383688 -0.004843
			CHANNELS 3 Zrotation Yrotation Xrotation
			JOINT rankle
			{
				OFFSET 0.019056 -0.420046 -0.034562
				CHANNELS 3 Zrotation Yrotation Xrotation
				JOINT rtoe
				{
					OFFSET -0.034840 -0.062106 0.130323
					CHANNELS 3 Zrotation Yrotation Xrotation
					End Site
					{
						OFFSET 0.000000 0.000000 0.000000
					}
				}
			}
		}
	}
	JOINT lowerback
	{
		OFFSET 0.004439 0.124404 -0.038385
		CHANNELS 3 Zrotation Yrotation Xrotation
		JOINT upperback
		{
			OFFSET 0.004488 0.137956 0.026820
			CHANNELS 3 Zrotation Yrotation Xrotation
			JOINT chest
			{
				OFFSET -0.002265 0.056032 0.002855
				CHANNELS 3 Zrotation Yrotation Xrotation
				JOINT lowerneck
				{
					OFFSET -0.013390 0.211636 -0.033468
					CHANNELS 3 Zrotation Yrotation Xrotation
					JOINT upperneck
					{
						OFFSET 0.010113 0.088937 0.050410
						CHANNELS 3 Zrotation Yrotation Xrotation
						End Site
						{
							OFFSET 0.000000 0.000000 0.000000
						}
					}
				}
				JOINT lclavicle
				{
					OFFSET 0.071702 0.114000 -0.018898
					CHANNELS 3 Zrotation Yrotation Xrotation
					JOINT lshoulder
					{
						OFFSET 0.122921 0.045205 -0.019046
						CHANNELS 3 Zrotation Yrotation Xrotation
						JOINT lelbow
						{
							OFFSET 0.255332 -0.015649 -0.022946
							CHANNELS 3 Zrotation Yrotation Xrotation
							JOINT lwrist
							{
								OFFSET 0.265709 0.012698 -0.007375
								CHANNELS 3 Zrotation Yrotation Xrotation
								End Site
								{
									OFFSET 0.000000 0.000000 0.000000
								}
							}
						}
					}
				}
				JOINT rclavicle
				{
					OFFSET -0.082954 0.112472 -0.023707
					CHANNELS 3 Zrotation Yrotation Xrotation
					JOINT rshoulder
					{
						OFFSET -0.113228 0.046853 -0.008472
						CHANNELS 3 Zrotation Yrotation Xrotation
						JOINT relbow
						{
							OFFSET -0.260127 -0.014369 -0.031269
							CHANNELS 3 Zrotation Yrotation Xrotation
							JOINT rwrist
							{
								OFFSET -0.269108 0.006794 -0.006027
								CHANNELS 3 Zrotation Yrotation Xrotation
								End Site
								{
									OFFSET 0.000000 0.000000 0.000000
								}
							}
						}
					}
				}
			}
		}
	}
}
MOTION
Frames: 7
Frame Time: 0.033333
-0.633110 1.055902 1.005096 -0.380320 3.014690 84.858986 3.217087 5.601633 8.196757 -3.125169 -2.548235 3.712099 4.540322 11.161149 -14.788527 0.000000 -0.000000 0.000000 -1.886234 -2.366955 4.179900 1.139806 8.646304 8.202047 5.603154 0.032356 -8.752651 0.000000 -0.000000 0.000000 -0.224705 0.704884 5.571237 0.427763 -1.560441 0.239699 -0.933589 -0.758058 4.137192 4.714011 5.084884 1.050631 0.596349 3.365108 6.860588 -29.673742 5.411945 0.640475 -54.819783 -4.278919 7.515689 8.688557 -29.740493 7.120966 -0.449809 -3.403055 -3.499571 27.675082 -1.925763 1.877585 57.481009 0.996498 15.912377 -14.015313 30.861089 1.644353 5.226501 2.025667 -1.224511 
-0.626215 1.055201 1.005378 -0.969428 3.256956 84.814615 3.001413 5.794308 8.528422 -3.058648 -2.640127 3.325174 5.113534 11.358659 -14.721851 0.000000 -0.000000 0.000000 -1.980627 -2.092888 2.543747 1.548384 8.596749 11.138265 5.631807 -0.104027 -9.228753 0.000000 -0.000000 0.000000 -0.418914 0.414557 5.648242 0.517258 -1.808364 0.299043 -1.103132 -1.076039 3.958554 4.764905 5.230482 0.817697 0.622538 3.326894 6.696893 -29.972661 4.226456 0.874288 -55.278712 -4.696882 8.080966 7.957645 -29.491258 7.784130 -0.861720 -3.364465 -2.637349 27.375557 -1.698244 2.051069 57.171719 1.137556 15.625208 -14.603837 30.978257 0.770631 5.384143 1.942707 -1.676084 
-0.620041 1.054902 1.005824 -1.413865 3.448330 84.566419 2.778072 6.085869 9.052291 -2.930538 -2.814051 2.914794 5.496723 11.510024 -14.600501 0.000000 -0.000000 0.000000 -1.896917 -1.572409 0.431839 1.932860 8.253535 15.410929 5.545767 -0.468047 -9.823100 0.000000 -0.000000 0.000000 -0.777945 -0.188104 6.245420 0.582442 -1.842398 0.239257 -1.252412 -1.330296 3.824889 4.968833 5.436233 0.409137 0.582470 3.306081 6.495879 -30.109014 3.055014 1.040514 -55.385336 -5.203610 8.721006 7.073664 -29.833701 8.992818 -1.150796 -3.546573 -2.049031 27.280725 -1.417741 2.052373 56.793845 1.104312 15.293210 -15.180257 31.461382 -0.494083 5.216023 2.079440 -2.237605 
-0.613302 1.053446 1.006571 -1.873753 3.604116 83.850048 2.611357 6.732587 10.435274 -2.777469 -3.287928 2.098632 5.691469 11.662236 -14.580100 0.000000 -0.000000 0.000000 -1.782618 -0.881008 -2.176226 2.175426 6.702986 21.342442 5.019116 -1.371946 -10.744059 0.000000 -0.000000 0.000000 -1.406331 -1.195172 7.340121 0.597975 -1.699421 0.257308 -1.347789 -1.537483 3.856684 5.242434 5.739597 -0.100772 0.476105 3.265459 6.122270 -30.064373 1.838996 1.097876 -55.206122 -5.966744 9.283272 5.846406 -30.870521 10.398286 -1.488379 -3.708199 -1.326854 27.260252 -1.133264 1.924498 56.438724 0.953413 14.994258 -15.973798 32.408225 -1.860642 5.226065 2.121139 -2.643677 
-0.609655 1.052178 1.006988 -2.089328 3.701132 83.264797 2.600439 7.161853 11.525543 -2.669784 -3.526637 1.511481 5.650147 11.727574 -14.578509 0.000000 -0.000000 0.000000 -1.705697 -0.471691 -3.545989 2.096563 5.349095 24.546291 4.655065 -2.067965 -11.451386 0.000000 -0.000000 0.000000 -1.732272 -1.899496 8.214212 0.534324 -1.611658 0.276424 -1.400408 -1.644079 3.844313 5.288508 6.001582 -0.348755 0.468283 3.402481 5.903868 -29.925733 1.216535 1.192285 -55.030319 -6.349039 9.413464 5.404053 -31.829450 10.829799 -1.627652 -3.840568 -1.180229 27.179333 -0.934348 1.882732 56.392892 0.753628 14.860255 -16.370763 33.246054 -2.421270 5.327031 2.229311 -2.819355 
-0.605240 1.050318 1.007502 -2.327674 3.844741 82.595240 2.572647 7.665095 12.942751 -2.411790 -3.841427 0.575925 5.553983 11.812078 -14.499091 0.000000 -0.000000 0.000000 -1.575061 -0.076882 -5.397506 1.851867 3.777832 27.925209 4.276560 -2.967813 -11.559674 0.000000 -0.000000 0.000000 -2.078173 -2.777653 9.231673 0.422174 -1.540601 0.347481 -1.483740 -1.830714 3.835379 5.230421 6.267809 -0.535784 0.416515 3.661049 5.725113 -29.804776 0.579532 1.298913 -54.600874 -6.886985 9.454253 5.062982 -33.122680 10.878167 -1.608463 -4.006481 -1.137884 27.141813 -0.806816 1.872773 56.373251 0.539129 14.790372 -16.886843 34.256779 -3.057624 5.333034 2.427397 -2.873720 
-0.601468 1.048067 1.007882 -2.489608 4.075242 82.187361 2.620511 8.041270 14.176148 -2.093063 -4.146204 -0.506419 5.532124 11.884663 -14.406662 0.000000 -0.000000 0.000000 -1.358041 -0.020349 -7.320611 1.622876 2.589517 29.823236 4.073166 -3.674338 -10.796251 0.000000 -0.000000 0.000000 -2.264122 -3.415693 9.895973 0.341064 -1.568055 0.422229 -1.515760 -2.114455 3.837226 5.053011 6.419181 -0.558658 0.377995 3.948629 5.752118 -29.738342 0.139691 1.424510 -54.174159 -7.456833 9.344920 5.000202 -34.286920 10.391809 -1.322597 -4.006196 -1.218178 27.115536 -0.811112 1.997588 56.394070 0.295484 14.735956 -17.370882 35.050664 -3.644391 5.281352 2.594133 -2.847522 
